<svg xmlns="http://www.w3.org/2000/svg" width="65.791" height="60.186" viewBox="0 0 65.791 60.186"><g fill="#D0442C"><path d="M4.41 23.414l.932 1.317c-.97.52-1.73 1.433-2.01 2.45-.55 2.003.53 3.99 2.46 4.52 1.93.53 3.886-.627 4.434-2.63.275-1 .11-2.154-.395-3.107l1.365-.703c.7 1.285.935 2.903.546 4.318-.803 2.933-3.594 4.613-6.405 3.842-2.783-.763-4.29-3.652-3.48-6.614.39-1.417 1.352-2.677 2.555-3.392zM13.627 24.804l-9.342-5.348.848-1.48 9.343 5.348-.85 1.48zM9.108 13.863c.455.36.516.96.165 1.4-.35.442-.947.52-1.4.157-.467-.37-.53-.968-.178-1.41.35-.44.947-.516 1.413-.147zm6.624 7.606L9.69 16.673l1.053-1.324 6.042 4.794-1.053 1.325zM18.99 9.42l-.054 1.422c-.773-.083-1.572.13-2.302.74-1.062.858-1.196 2.252-.276 3.392.92 1.14 2.31 1.303 3.372.445.773-.626 1.197-1.376 1.23-2.186l1.322.126c.02 1.158-.542 2.282-1.71 3.224-1.823 1.472-4.085 1.267-5.543-.54-1.467-1.817-1.198-4.084.627-5.556 1.11-.895 2.257-1.244 3.332-1.07zM24.997 11.275l.8 2.008-1.586.63-3.978-10 1.585-.63L24.22 9.32l1.962-4.495L28 4.102l-1.61 3.856 4.67 3.232-1.875.746-3.458-2.434-.73 1.773zM43.26 6.575l-.4 4.785-1.7-.142.362-4.324c.096-1.157-.554-1.924-1.736-2.024-1.406-.103-2.334.853-2.447 2.212l-.317 3.79-1.7-.144L36.217 0l1.7.142-.38 4.54c.653-1.036 1.698-1.43 3.043-1.317 1.833.153 2.834 1.373 2.68 3.21zM52 11.605l-5.49-2.32c-.22 1.2.354 2.243 1.5 2.728.793.336 1.642.348 2.4.04l.466 1.22c-1.032.46-2.258.462-3.515-.07-2.24-.946-3.098-3.026-2.192-5.163.91-2.15 3.044-2.965 5.208-2.065 2.555 1.08 2.903 3.147 1.625 5.63zm-.89-1.7c.433-1.17-.052-2.195-1.24-2.697-1.147-.485-2.253-.118-2.912.942l4.152 1.756zM56.758 11.508c1.055-.514 2.144-.383 3.14.368l-.96 1.274c-1.215-1.024-2.57-.9-3.47.073l-2.427 3.223-1.36-1.027 4.64-6.168 1.363 1.026-.925 1.23zM62.724 21.995l-3.76-4.628c-.753.958-.738 2.15.047 3.117.544.668 1.286 1.076 2.102 1.16l-.16 1.297c-1.13-.076-2.21-.65-3.07-1.707-1.534-1.888-1.317-4.13.483-5.595 1.812-1.474 4.076-1.194 5.565.615 1.748 2.153 1.086 4.145-1.206 5.742zm.01-1.92c.932-.833.983-1.966.17-2.967-.785-.967-1.934-1.16-3.012-.532l2.843 3.5z"/></g><g fill="#D0442C"><path d="M46.74 54.41s-1.564 7.234-8.228 5.51c0 0-14.073-35.756 19.746-18.17 0 0 5.812 4.153-6.71 8.824 0 0-3.534.916-4.81 3.837zM32.24 49.978c1.465 2.938-.408 5.72-4.18 6.216-3.774.495-8.02-1.482-9.484-4.42-1.464-2.937.41-5.72 4.182-6.215 3.773-.498 8.02 1.48 9.483 4.418zM25.097 28.44c4.43 2.25 7.657 6.61 7.206 9.734-.45 3.127-4.406 3.838-8.834 1.587-4.433-2.248-7.658-6.607-7.208-9.733.45-3.127 4.405-3.836 8.835-1.586zM41.818 24.375c1.653 4.314.51 7.783-2.555 7.75-3.063-.035-6.89-3.558-8.542-7.87-1.653-4.313-.51-7.782 2.555-7.748 3.066.033 6.89 3.556 8.543 7.868zM44.957 27.924c1.42 4.205 5.178 7.778 8.396 7.98 3.22.204 4.676-3.038 3.258-7.242-1.42-4.204-5.18-7.778-8.4-7.98-3.218-.206-4.677 3.038-3.253 7.242z"/></g></svg>