<svg xmlns="http://www.w3.org/2000/svg" width="81" height="73.333" viewBox="0 0 81 73.333"><path d="M15.714 18.748L4.726 16.443 10.7 23.19l-1.583 1.404-8.334-9.407 1.56-1.38L13.368 16.1 7.38 9.343l1.56-1.38 8.333 9.405-1.56 1.38zm4.294-5.744l-.182 3.077-2.08.743 1.007-13.706 2.048-.73 9.398 10-2.13.76-2.088-2.27-5.972 2.128zm.47-8.1l-.358 6.058 4.467-1.592-4.11-4.467zm13.088 7.83L28.254.3l2.28-.057 4.123 10.114L38.32.053 40.527 0l-4.772 12.683-2.19.052zm8.19.646l2.956-12.214 2.06.5-2.955 12.21-2.06-.497zm16.752.53l-2.227 4.06c-1.582.24-3.555-.085-5.065-.913-3.26-1.787-4.455-5.616-2.73-8.765 1.727-3.15 5.613-4.15 8.95-2.32 1.575.862 2.82 2.323 3.39 3.863l-1.806.792c-.42-1.254-1.34-2.373-2.49-3.003-2.25-1.234-4.955-.485-6.155 1.703-1.208 2.204-.37 4.896 1.882 6.13.818.448 1.902.674 2.948.633l1.683-3.07 1.62.89zm1.845 6.276l-2.946.905-1.42-1.69 13.192-3.84 1.396 1.663-6.086 12.295-1.455-1.73 1.397-2.747-4.08-4.853zm7.752-2.388l-5.8 1.78 3.05 3.63 2.75-5.41zm7.405 11.648l-9.8 4.196-.834-1.948 9.8-4.193-1.56-3.644 1.747-.75 3.963 9.257-1.75.748-1.567-3.663zm-8.313 9.12l12.36-2.28.385 2.085-12.36 2.28-.385-2.083zm6.236 17.377c-3.576-.334-6.078-3.49-5.73-7.227.35-3.737 3.393-6.376 6.97-6.042 3.593.336 6.04 3.486 5.692 7.224-.35 3.738-3.357 6.38-6.932 6.045zM74.47 44.82c-2.484-.23-4.644 1.642-4.872 4.09-.23 2.45 1.552 4.638 4.037 4.87 2.484.232 4.604-1.59 4.83-4.04.233-2.468-1.508-4.687-3.994-4.92zM62.402 64.21l11.117-1.608-7.936-4.285 1.01-1.864 11.06 5.976-.99 1.83-11.15 1.63 7.948 4.297-.99 1.834-11.06-5.977.99-1.834zM30.76 63.547s-6.22 4.008-9.71-1.923c0 0 15.33-35.235 26.81 1.114 0 0 1.172 7.047-10.984 1.495 0 0-3.147-1.85-6.115-.686zM23.645 50.16c-1.042 3.11-4.334 3.755-7.353 1.437-3.02-2.318-4.622-6.72-3.58-9.832 1.04-3.11 4.333-3.754 7.352-1.436 3.02 2.315 4.623 6.716 3.58 9.83zm10.177-20.28c1.542 4.724.74 10.087-1.787 11.978-2.53 1.894-5.83-.4-7.37-5.124-1.542-4.725-.74-10.087 1.788-11.98 2.53-1.893 5.828.403 7.37 5.126zm14.698 8.947c-1.88 4.22-5.142 5.864-7.284 3.673-2.143-2.19-2.356-7.386-.476-11.604 1.88-4.22 5.142-5.863 7.284-3.672 2.144 2.19 2.356 7.385.477 11.603zm-.29 4.73c-1.97 3.977-1.838 9.16.294 11.58s5.455 1.157 7.425-2.818c1.966-3.98 1.835-9.165-.298-11.585-2.13-2.42-5.456-1.16-7.423 2.82z" fill="#D0442C"/></svg>