<svg xmlns="http://www.w3.org/2000/svg" width="44.948" height="42.274" viewBox="0 0 44.948 42.274"><path d="M18.367 39.456s-6.22 4.008-9.712-1.923c0 0 15.332-35.235 26.812 1.114 0 0 1.17 7.047-10.985 1.495 0 0-3.148-1.85-6.115-.686zM11.25 26.068c-1.042 3.112-4.334 3.756-7.353 1.438-3.02-2.318-4.622-6.72-3.58-9.832 1.04-3.11 4.333-3.754 7.352-1.436 3.02 2.318 4.62 6.718 3.58 9.83zM21.427 5.79c1.542 4.723.74 10.086-1.787 11.977-2.53 1.894-5.83-.4-7.37-5.124-1.54-4.725-.74-10.087 1.79-11.98 2.53-1.892 5.828.403 7.37 5.126zm14.7 8.946c-1.883 4.22-5.144 5.864-7.286 3.673-2.14-2.19-2.354-7.388-.474-11.606 1.88-4.22 5.142-5.863 7.284-3.672 2.143 2.19 2.355 7.386.476 11.603zm-.292 4.73c-1.97 3.977-1.838 9.16.294 11.58 2.13 2.42 5.453 1.157 7.423-2.818 1.968-3.977 1.837-9.163-.296-11.583-2.13-2.42-5.456-1.16-7.423 2.82z" fill="#D0442C"/></svg>